<svg width="156" height="28" viewBox="0 0 156 28" fill="none" xmlns="http://www.w3.org/2000/svg">
<g clip-path="url(#clip0_238_3256)">
<path d="M14.4856 1.37807L14.4868 1.38096L17.6125 8.61612L17.8288 9.11675L18.3668 9.20604L25.3495 10.365C25.3498 10.365 25.35 10.365 25.3502 10.3651C25.5045 10.3915 25.7134 10.5331 25.8057 10.8474C25.8976 11.1602 25.8124 11.491 25.6377 11.6852L25.6373 11.6856L20.572 17.3239L20.2568 17.6748L20.3271 18.1412L21.5274 26.1067C21.5274 26.107 21.5275 26.1073 21.5275 26.1076C21.5768 26.4425 21.4445 26.7439 21.2563 26.8979C21.1018 27.0243 20.9228 27.0355 20.7587 26.9388C20.7581 26.9385 20.7576 26.9381 20.757 26.9378L14.5246 23.1943L14.0097 22.885L13.4948 23.1943L7.26231 26.9378C7.26176 26.9381 7.26121 26.9385 7.26065 26.9388C7.10236 27.032 6.91966 27.0243 6.75773 26.8936C6.57788 26.7485 6.44182 26.4465 6.49182 26.1074C6.49185 26.1072 6.49189 26.1069 6.49192 26.1067L7.68747 18.1406L7.75743 17.6745L7.44245 17.3239L2.37717 11.6856L2.37681 11.6852C2.20578 11.495 2.11843 11.1632 2.2107 10.8406C2.29748 10.5372 2.50526 10.3923 2.66418 10.3651C2.66444 10.3651 2.66469 10.365 2.66495 10.365L9.64295 9.20602L10.1809 9.11668L10.3971 8.61612L13.5213 1.38432C13.5215 1.38389 13.5217 1.38346 13.5219 1.38303C13.6479 1.09548 13.858 1 14.0048 1C14.1562 1 14.3663 1.09966 14.4856 1.37807Z" fill="#4F98CA" stroke="#4F98CA" stroke-width="2"/>
</g>
<g clip-path="url(#clip1_238_3256)">
<path d="M46.4856 1.37807L46.4868 1.38096L49.6125 8.61612L49.8288 9.11675L50.3668 9.20604L57.3495 10.365C57.3498 10.365 57.35 10.365 57.3502 10.3651C57.5045 10.3915 57.7134 10.5331 57.8057 10.8474C57.8976 11.1602 57.8124 11.491 57.6377 11.6852L57.6373 11.6856L52.572 17.3239L52.2568 17.6748L52.3271 18.1412L53.5274 26.1067C53.5274 26.107 53.5275 26.1073 53.5275 26.1076C53.5768 26.4425 53.4445 26.7439 53.2563 26.8979C53.1018 27.0243 52.9228 27.0355 52.7587 26.9388C52.7581 26.9385 52.7576 26.9381 52.757 26.9378L46.5246 23.1943L46.0097 22.885L45.4948 23.1943L39.2623 26.9378C39.2618 26.9381 39.2612 26.9385 39.2607 26.9388C39.1024 27.032 38.9197 27.0243 38.7577 26.8936C38.5779 26.7485 38.4418 26.4465 38.4918 26.1074C38.4919 26.1072 38.4919 26.1069 38.4919 26.1067L39.6875 18.1406L39.7574 17.6745L39.4424 17.3239L34.3772 11.6856L34.3768 11.6852C34.2058 11.495 34.1184 11.1632 34.2107 10.8406C34.2975 10.5372 34.5053 10.3923 34.6642 10.3651C34.6644 10.3651 34.6647 10.365 34.6649 10.365L41.6429 9.20602L42.1809 9.11668L42.3971 8.61612L45.5213 1.38432C45.5215 1.38389 45.5217 1.38346 45.5219 1.38303C45.6479 1.09548 45.858 1 46.0048 1C46.1562 1 46.3663 1.09966 46.4856 1.37807Z" fill="#4F98CA" stroke="#4F98CA" stroke-width="2"/>
</g>
<g clip-path="url(#clip2_238_3256)">
<path d="M78.4856 1.37807L78.4868 1.38096L81.6125 8.61612L81.8288 9.11675L82.3668 9.20604L89.3495 10.365C89.3498 10.365 89.35 10.365 89.3502 10.3651C89.5045 10.3915 89.7134 10.5331 89.8057 10.8474C89.8976 11.1602 89.8124 11.491 89.6377 11.6852L89.6373 11.6856L84.572 17.3239L84.2568 17.6748L84.3271 18.1412L85.5274 26.1067C85.5274 26.107 85.5275 26.1073 85.5275 26.1076C85.5768 26.4425 85.4445 26.7439 85.2563 26.8979C85.1018 27.0243 84.9228 27.0355 84.7587 26.9388C84.7581 26.9385 84.7576 26.9381 84.757 26.9378L78.5246 23.1943L78.0097 22.885L77.4948 23.1943L71.2623 26.9378C71.2618 26.9381 71.2612 26.9385 71.2607 26.9388C71.1024 27.032 70.9197 27.0243 70.7577 26.8936C70.5779 26.7485 70.4418 26.4465 70.4918 26.1074C70.4919 26.1072 70.4919 26.1069 70.4919 26.1067L71.6875 18.1406L71.7574 17.6745L71.4424 17.3239L66.3772 11.6856L66.3768 11.6852C66.2058 11.495 66.1184 11.1632 66.2107 10.8406C66.2975 10.5372 66.5053 10.3923 66.6642 10.3651C66.6644 10.3651 66.6647 10.365 66.6649 10.365L73.6429 9.20602L74.1809 9.11668L74.3971 8.61612L77.5213 1.38432C77.5215 1.38389 77.5217 1.38346 77.5219 1.38303C77.6479 1.09548 77.858 1 78.0048 1C78.1562 1 78.3663 1.09966 78.4856 1.37807Z" fill="#4F98CA" stroke="#4F98CA" stroke-width="2"/>
</g>
<g clip-path="url(#clip3_238_3256)">
<path d="M110.486 1.37807L110.487 1.38096L113.612 8.61612L113.829 9.11675L114.367 9.20604L121.35 10.365C121.35 10.365 121.35 10.365 121.35 10.3651C121.505 10.3915 121.713 10.5331 121.806 10.8474C121.898 11.1602 121.812 11.491 121.638 11.6852L121.637 11.6856L116.572 17.3239L116.257 17.6748L116.327 18.1412L117.527 26.1067C117.527 26.107 117.527 26.1073 117.528 26.1076C117.577 26.4425 117.444 26.7439 117.256 26.8979C117.102 27.0243 116.923 27.0355 116.759 26.9388C116.758 26.9385 116.758 26.9381 116.757 26.9378L110.525 23.1943L110.01 22.885L109.495 23.1943L103.262 26.9378C103.262 26.9381 103.261 26.9385 103.261 26.9388C103.102 27.032 102.92 27.0243 102.758 26.8936C102.578 26.7485 102.442 26.4465 102.492 26.1074C102.492 26.1072 102.492 26.1069 102.492 26.1067L103.687 18.1406L103.757 17.6745L103.442 17.3239L98.3772 11.6856L98.3768 11.6852C98.2058 11.495 98.1184 11.1632 98.2107 10.8406C98.2975 10.5372 98.5053 10.3923 98.6642 10.3651C98.6644 10.3651 98.6647 10.365 98.6649 10.365L105.643 9.20602L106.181 9.11668L106.397 8.61612L109.521 1.38432C109.522 1.38389 109.522 1.38346 109.522 1.38303C109.648 1.09548 109.858 1 110.005 1C110.156 1 110.366 1.09966 110.486 1.37807Z" stroke="#4F98CA" stroke-width="2"/>
</g>
<g clip-path="url(#clip4_238_3256)">
<path d="M142.486 1.37807L142.487 1.38096L145.612 8.61612L145.829 9.11675L146.367 9.20604L153.35 10.365C153.35 10.365 153.35 10.365 153.35 10.3651C153.505 10.3915 153.713 10.5331 153.806 10.8474C153.898 11.1602 153.812 11.491 153.638 11.6852L153.637 11.6856L148.572 17.3239L148.257 17.6748L148.327 18.1412L149.527 26.1067C149.527 26.107 149.527 26.1073 149.528 26.1076C149.577 26.4425 149.444 26.7439 149.256 26.8979C149.102 27.0243 148.923 27.0355 148.759 26.9388C148.758 26.9385 148.758 26.9381 148.757 26.9378L142.525 23.1943L142.01 22.885L141.495 23.1943L135.262 26.9378C135.262 26.9381 135.261 26.9385 135.261 26.9388C135.102 27.032 134.92 27.0243 134.758 26.8936C134.578 26.7485 134.442 26.4465 134.492 26.1074C134.492 26.1072 134.492 26.1069 134.492 26.1067L135.687 18.1406L135.757 17.6745L135.442 17.3239L130.377 11.6856L130.377 11.6852C130.206 11.495 130.118 11.1632 130.211 10.8406C130.297 10.5372 130.505 10.3923 130.664 10.3651C130.664 10.3651 130.665 10.365 130.665 10.365L137.643 9.20602L138.181 9.11668L138.397 8.61612L141.521 1.38432C141.522 1.38389 141.522 1.38346 141.522 1.38303C141.648 1.09548 141.858 1 142.005 1C142.156 1 142.366 1.09966 142.486 1.37807Z" stroke="#4F98CA" stroke-width="2"/>
</g>
<defs>
<clipPath id="clip0_238_3256">
<rect width="28" height="28" fill="white"/>
</clipPath>
<clipPath id="clip1_238_3256">
<rect width="28" height="28" fill="white" transform="translate(32)"/>
</clipPath>
<clipPath id="clip2_238_3256">
<rect width="28" height="28" fill="white" transform="translate(64)"/>
</clipPath>
<clipPath id="clip3_238_3256">
<rect width="28" height="28" fill="white" transform="translate(96)"/>
</clipPath>
<clipPath id="clip4_238_3256">
<rect width="28" height="28" fill="white" transform="translate(128)"/>
</clipPath>
</defs>
</svg>
