<svg width="109" height="33" viewBox="0 0 109 33" fill="none" xmlns="http://www.w3.org/2000/svg">
<path d="M0.432424 30V0.90909H6.58299V12.9119H19.0688V0.90909H25.2052V30H19.0688V17.983H6.58299V30H0.432424ZM30.9162 30V0.90909H42.3934C44.5999 0.90909 46.4796 1.33049 48.0327 2.1733C49.5857 3.00663 50.7694 4.16667 51.5838 5.65341C52.4077 7.13068 52.8196 8.83523 52.8196 10.767C52.8196 12.6989 52.4029 14.4034 51.5696 15.8807C50.7363 17.358 49.5289 18.5085 47.9474 19.3324C46.3755 20.1562 44.472 20.5682 42.2372 20.5682H34.9219V15.6392H41.2429C42.4266 15.6392 43.402 15.4356 44.169 15.0284C44.9455 14.6117 45.5232 14.0388 45.902 13.3097C46.2902 12.571 46.4844 11.7235 46.4844 10.767C46.4844 9.80114 46.2902 8.95833 45.902 8.23864C45.5232 7.50947 44.9455 6.94602 44.169 6.5483C43.3925 6.1411 42.4077 5.9375 41.2145 5.9375H37.0667V30H30.9162ZM68.4347 19.8864H73.662L76.2898 23.267L78.8751 26.2784L83.7472 32.3864H78.0086L74.6563 28.267L72.9376 25.8239L68.4347 19.8864ZM84.1876 15.4545C84.1876 18.6269 83.5862 21.3258 82.3836 23.5511C81.1904 25.7765 79.5616 27.4763 77.4972 28.6506C75.4423 29.8153 73.1317 30.3977 70.5654 30.3977C67.9802 30.3977 65.6601 29.8106 63.6052 28.6364C61.5503 27.4621 59.9262 25.7623 58.733 23.5369C57.5398 21.3116 56.9432 18.6174 56.9432 15.4545C56.9432 12.2822 57.5398 9.58333 58.733 7.35795C59.9262 5.13258 61.5503 3.4375 63.6052 2.27273C65.6601 1.09848 67.9802 0.511363 70.5654 0.511363C73.1317 0.511363 75.4423 1.09848 77.4972 2.27273C79.5616 3.4375 81.1904 5.13258 82.3836 7.35795C83.5862 9.58333 84.1876 12.2822 84.1876 15.4545ZM77.9518 15.4545C77.9518 13.3996 77.644 11.6667 77.0285 10.2557C76.4224 8.8447 75.5654 7.77462 74.4575 7.04545C73.3495 6.31629 72.0521 5.9517 70.5654 5.9517C69.0787 5.9517 67.7813 6.31629 66.6734 7.04545C65.5654 7.77462 64.7037 8.8447 64.0881 10.2557C63.4821 11.6667 63.179 13.3996 63.179 15.4545C63.179 17.5095 63.4821 19.2424 64.0881 20.6534C64.7037 22.0644 65.5654 23.1345 66.6734 23.8636C67.7813 24.5928 69.0787 24.9574 70.5654 24.9574C72.0521 24.9574 73.3495 24.5928 74.4575 23.8636C75.5654 23.1345 76.4224 22.0644 77.0285 20.6534C77.644 19.2424 77.9518 17.5095 77.9518 15.4545ZM89.3837 30V0.90909H95.5342V24.929H108.006V30H89.3837Z" fill="#EFFFFB"/>
</svg>
